<?xml version="1.0" encoding="UTF-8" standalone="no"?>
<!-- Created with Inkscape (http://www.inkscape.org/) -->

<svg
   width="210mm"
   height="297mm"
   viewBox="0 0 210 297"
   version="1.1"
   id="svg2203"
   inkscape:version="1.1.1 (c3084ef, 2021-09-22)"
   sodipodi:docname="animals.svg"
   xmlns:inkscape="http://www.inkscape.org/namespaces/inkscape"
   xmlns:sodipodi="http://sodipodi.sourceforge.net/DTD/sodipodi-0.dtd"
   xmlns="http://www.w3.org/2000/svg"
   xmlns:svg="http://www.w3.org/2000/svg">
  <sodipodi:namedview
     id="namedview2205"
     pagecolor="#ffffff"
     bordercolor="#666666"
     borderopacity="1.0"
     inkscape:pageshadow="2"
     inkscape:pageopacity="0.0"
     inkscape:pagecheckerboard="0"
     inkscape:document-units="mm"
     showgrid="false"
     inkscape:zoom="7.0944257"
     inkscape:cx="185.0044"
     inkscape:cy="135.52894"
     inkscape:window-width="1680"
     inkscape:window-height="935"
     inkscape:window-x="0"
     inkscape:window-y="25"
     inkscape:window-maximized="1"
     inkscape:current-layer="layer1" />
  <defs
     id="defs2200" />
  <g
     inkscape:label="Layer 1"
     inkscape:groupmode="layer"
     id="layer1">
    <g
       fill-rule="evenodd"
       fill="none"
       stroke="#000000"
       stroke-width="1"
       stroke-linejoin="bevel"
       stroke-linecap="square"
       id="DrawingContent"
       transform="matrix(0.1,0,0,0.1,-114.41085,-80.320605)"
       style="stroke-width:0.01000001;stroke-miterlimit:4;stroke-dasharray:none;stroke:#ff0000;stroke-opacity:1">
      <g
         font-weight="400"
         transform="translate(1485,1050)"
         fill="#ffffff"
         font-family="'.AppleSystemUIFont'"
         stroke="none"
         font-style="normal"
         fill-opacity="1"
         font-size="45.8611px"
         id="g1298"
         style="stroke-width:0.01000001;stroke-miterlimit:4;stroke-dasharray:none;stroke:#ff0000;stroke-opacity:1">
        <path
           fill-rule="evenodd"
           d="m -154.688,33.0986 c 49.024,-139.4356 130.9788,-141.6226 179.2061,-128.6812 48.2273,12.9418 62.7276,41.013 73.1254,61.6515 10.3975,20.6384 16.6935,33.8439833 26.5335,36.32383 9.84,2.47985 23.225,-5.76602 35.284,-3.45382 12.06,2.31219 22.795,15.18249 23.59,25.75359 0.795,10.5712 -8.35,18.8432 -23.088,21.3735 -14.738,2.5304 -35.069,-0.6809 -47.251,0.4954 -12.183,1.1763 -16.2154,6.7402 -13.4071,13.1976 2.8081,6.4575 12.4571,13.8085 15.1991,20.974 2.742,7.1656 -1.424,14.1457 -12.695,15.3372 C 90.539,97.2617 72.1642,92.6646 61.0835,84.5972 50.0027,76.5297 46.216,64.9919 34.4414,62.8567 22.6669,60.7215 2.90445,67.9889 -17.7747,68.1658 c -20.6791,0.1768 -42.275,-6.737 -51.6754,-6.8344 -9.4005,-0.0974 -6.6055,6.6215 -2.9666,13.2733 3.6389,6.6518 8.1217,13.2366 7.0555,18.2424 -1.0661,5.0057 -7.6813,8.4329 -18.4004,7.6779 -10.7192,-0.7536 -25.5424,-5.6887 -33.6274,-14.3721 -8.086,-8.6834 -9.434,-21.1152 -18.202,-24.2211 -8.769,-3.1059 -24.958,3.114 -37.241,1.6733 -12.284,-1.4407 -20.662,-10.5421 18.144,-30.5065"
           vector-effect="non-scaling-stroke"
           id="path1296"
           style="stroke-width:0.01000001;stroke-miterlimit:4;stroke-dasharray:none;stroke:#ff0000;stroke-opacity:1" />
      </g>
      <g
         font-weight="400"
         transform="translate(1485,1050)"
         fill="none"
         font-family="'.AppleSystemUIFont'"
         stroke="#000000"
         font-style="normal"
         stroke-width="7"
         stroke-linejoin="bevel"
         stroke-linecap="round"
         stroke-opacity="1"
         font-size="45.8611px"
         id="g1302"
         style="stroke-width:0.01000001;stroke-miterlimit:4;stroke-dasharray:none;stroke:#ff0000;stroke-opacity:1">
        <path
           fill-rule="evenodd"
           d="m -154.688,33.0986 c 49.024,-139.4356 130.9788,-141.6226 179.2061,-128.6812 48.2273,12.9418 62.7276,41.013 73.1254,61.6515 10.3975,20.6384 16.6935,33.8439833 26.5335,36.32383 9.84,2.47985 23.225,-5.76602 35.284,-3.45382 12.06,2.31219 22.795,15.18249 23.59,25.75359 0.795,10.5712 -8.35,18.8432 -23.088,21.3735 -14.738,2.5304 -35.069,-0.6809 -47.251,0.4954 -12.183,1.1763 -16.2154,6.7402 -13.4071,13.1976 2.8081,6.4575 12.4571,13.8085 15.1991,20.974 2.742,7.1656 -1.424,14.1457 -12.695,15.3372 C 90.539,97.2617 72.1642,92.6646 61.0835,84.5972 50.0027,76.5297 46.216,64.9919 34.4414,62.8567 22.6669,60.7215 2.90445,67.9889 -17.7747,68.1658 c -20.6791,0.1768 -42.275,-6.737 -51.6754,-6.8344 -9.4005,-0.0974 -6.6055,6.6215 -2.9666,13.2733 3.6389,6.6518 8.1217,13.2366 7.0555,18.2424 -1.0661,5.0057 -7.6813,8.4329 -18.4004,7.6779 -10.7192,-0.7536 -25.5424,-5.6887 -33.6274,-14.3721 -8.086,-8.6834 -9.434,-21.1152 -18.202,-24.2211 -8.769,-3.1059 -24.958,3.114 -37.241,1.6733 -12.284,-1.4407 -20.662,-10.5421 18.144,-30.5065"
           vector-effect="none"
           id="path1300"
           style="stroke-width:0.01000001;stroke-miterlimit:4;stroke-dasharray:none;stroke:#ff0000;stroke-opacity:1" />
      </g>
    </g>
    <g
       fill-rule="evenodd"
       fill="none"
       stroke="#000000"
       stroke-width="1"
       stroke-linejoin="bevel"
       stroke-linecap="square"
       id="DrawingContent-7"
       transform="matrix(0.1,0,0,0.1,-113.9232,-51.561014)"
       style="stroke-width:0.01000001;stroke-miterlimit:4;stroke-dasharray:none;stroke:#ff0000;stroke-opacity:1">
      <g
         font-weight="400"
         transform="translate(1485,1050)"
         fill="#ffffff"
         font-family="'.AppleSystemUIFont'"
         stroke="none"
         font-style="normal"
         fill-opacity="1"
         font-size="45.8611px"
         id="g1959"
         style="stroke-width:0.01000001;stroke-miterlimit:4;stroke-dasharray:none;stroke:#ff0000;stroke-opacity:1">
        <path
           fill-rule="evenodd"
           d="m 186.826,89.9593 c -0.225,-2.8881 -1.16,-5.8985 -2.557,-8.6875 -2.383,-4.7587 -6.108,-8.8727 -10.376,-12.294 -5.659,-4.5302 -11.985,-7.7248 -20.563,-10.9845 -6.597,-2.5104 -14.293,-5.0102 -21.134,-7.5843 -4.891,-1.8402 -9.344,-3.7183 -11.828,-5.7728 -1.312,-1.0854 -2.075,-2.22 -2.062,-3.4242 0.011,-0.5287 0.156,-1.0646 0.435,-1.6077 0.763,-1.5037 2.457,-3.0155 4.485,-4.2715 2.348,-1.4543 5.137,-2.5624 7.456,-2.9257 4.522,-0.7216 7.881,0.9815 13.756,1.6232 6.855,0.7481 17.134,0.0544 26.947,-0.7652 8.038,-0.6791 15.755,-1.5269 20.938,-2.6068 5.755,-1.199 8.385,-2.6841 11.963,-5.3735 3.578,-2.6894 8.102,-6.5831 10.214,-16.67879 2.113,-10.0957 1.812,-26.39341 -28.242,-43.22681 -16.686,-8.3098 -25.672,-10.3585 -31.66,-17.1404 -5.989,-6.7819 -8.981,-18.2972 -12.521,-31.0835 -3.541,-12.7863 -7.63,-26.8433 -14.013,-38.0883 -6.384,-11.244 -15.062,-19.676 -22.207,-24.953 -7.1454,-5.277 -12.7577,-7.399 -16.0529,-6.395 -3.2951,1.005 -4.2732,5.137 -2.3332,11.541 1.9399,6.404 6.7979,15.08 10.4958,25.301 3.6983,10.221 6.2353,21.9881 6.6083,27.7627 0.409,6.3378 -1.787,5.4588 -5.877,1.0568 -1.1259,-1.2217 -2.4121,-2.7015 -3.8587,-4.4395 -2.8776,-3.4379 -6.4171,-7.8138 -10.736,-12.81 -7.197,-8.324 -16.5584,-18.371 -26.12,-25.547 -9.5616,-7.176 -19.3235,-11.481 -25.6121,-12.392 -6.2886,-0.911 -9.1039,1.571 -9.9969,6.861 -0.8931,5.291 0.1362,13.389 5.6829,24.377 5.5467,10.988 15.6108,24.8666 29.2318,36.2219 13.621,11.3553 30.7989,20.1874 33.5844,27.9358 2.7856,7.7485 -8.8213,14.4135 -19.833,17.3509 -11.0117,2.9375 -21.4283,2.1475 -43.1508,-1.1908 -21.7224,-3.3383 -54.7506,-9.2249 -107.9332,19.299 -4.8185,6.13036 -14.2649,-2.1804 -22.9514,-7.435 -8.687,-5.2546 -16.613,-7.453 -23.211,-6.3412 -6.599,1.1118 -11.869,5.5338 -14.548,11.2614 -2.679,5.72762 -2.768,12.760821 0.186,18.24634 2.953,5.48556 8.949,9.42336 12.935,12.78366 3.986,3.3604 5.962,6.1433 6.56,10.7993 0.599,4.6561 -0.18,11.1854 -3.157,16.4112 -2.977,5.2257 -8.153,9.1479 -14.841,11.4911 -6.688,2.3433 -14.887,3.1077 -21.208,5.8766 -4.128,1.8079 -7.455,4.4706 -10.148,8.1446 -1.428,1.9488 -2.688,4.1951 -3.783,6.739 -3.165,7.3412 -5.052,17.2501 -9.337,25.4752 -4.286,8.225 -10.97,14.767 -17.004,19.196 -6.685,4.899 -12.558,7.226 -14.136,11.454 -1.31,3.364 -0.22,7.509 1.729,10.861 2.183,3.753 5.443,6.511 10.821,7.77 5.377,1.259 12.872,1.02 20.134,-1.519 7.262,-2.538 14.293,-7.375 20.763,-14.803 6.47,-7.429 12.379,-17.448 16.967,-23.849 4.587,-6.402 7.852,-9.185 11.236,-9.21 3.383,-0.024 6.885,2.712 11.758,5.961 4.874,3.25 11.12,7.015 19.238,9.952 8.1179,2.938 18.1078,5.049 26.4037,5.681 8.296,0.633 14.898,-0.214 21.4172,-3.012 6.5192,-2.798 12.9556,-7.547 19.5862,-14.596 6.6306,-7.0501 13.4554,-16.4003 22.1234,-19.0875 8.66792,-2.6871 19.17903,1.2889 30.8304,-0.1475 11.6514,-1.4364 24.443,-8.2852 31.9507,-10.0752 7.5077,-1.7901 9.7315,1.4786 13.7748,4.9481 3.8167,3.2751 9.2546,6.729 21.6008,7.9331 3.6272,0.3591 7.9442,0.4911 12.584,0.5115 12.9628,0.0593 28.3678,-0.726 37.6078,0.3764 11.88,1.4173 13.568,5.9551 17.825,9.2861 4.256,3.332 11.082,5.457 17.383,5.029 6.302,-0.428 12.079,-3.409 14.473,-7.9488 1.134,-2.1507 1.508,-4.6512 1.307,-7.2509"
           vector-effect="non-scaling-stroke"
           id="path1957"
           style="stroke-width:0.01000001;stroke-miterlimit:4;stroke-dasharray:none;stroke:#ff0000;stroke-opacity:1" />
      </g>
      <g
         font-weight="400"
         transform="translate(1485,1050)"
         fill="none"
         font-family="'.AppleSystemUIFont'"
         stroke="#000000"
         font-style="normal"
         stroke-width="7"
         stroke-linejoin="bevel"
         stroke-linecap="round"
         stroke-opacity="1"
         font-size="45.8611px"
         id="g1963"
         style="stroke-width:0.01000001;stroke-miterlimit:4;stroke-dasharray:none;stroke:#ff0000;stroke-opacity:1">
        <path
           fill-rule="evenodd"
           d="m 98.698,-86.6195 c -1.1259,-1.2217 -2.4121,-2.7015 -3.8587,-4.4395"
           vector-effect="none"
           id="path1961"
           style="stroke-width:0.01000001;stroke-miterlimit:4;stroke-dasharray:none;stroke:#ff0000;stroke-opacity:1" />
      </g>
      <g
         font-weight="400"
         transform="translate(1485,1050)"
         fill="none"
         font-family="'.AppleSystemUIFont'"
         stroke="#000000"
         font-style="normal"
         stroke-width="7"
         stroke-linejoin="bevel"
         stroke-linecap="round"
         stroke-opacity="1"
         font-size="45.8611px"
         id="g1967"
         style="stroke-width:0.01000001;stroke-miterlimit:4;stroke-dasharray:none;stroke:#ff0000;stroke-opacity:1">
        <path
           fill-rule="evenodd"
           d="m -170.427,70.2848 c -1.428,1.9488 -2.688,4.1951 -3.783,6.739 -3.165,7.3412 -5.052,17.2501 -9.337,25.4752 -4.286,8.225 -10.97,14.767 -17.004,19.196 -6.685,4.899 -12.558,7.226 -14.136,11.454"
           vector-effect="none"
           id="path1965"
           style="stroke-width:0.01000001;stroke-miterlimit:4;stroke-dasharray:none;stroke:#ff0000;stroke-opacity:1" />
      </g>
      <g
         font-weight="400"
         transform="translate(1485,1050)"
         fill="none"
         font-family="'.AppleSystemUIFont'"
         stroke="#000000"
         font-style="normal"
         stroke-width="7"
         stroke-linejoin="bevel"
         stroke-linecap="round"
         stroke-opacity="1"
         font-size="45.8611px"
         id="g1971"
         style="stroke-width:0.01000001;stroke-miterlimit:4;stroke-dasharray:none;stroke:#ff0000;stroke-opacity:1">
        <path
           fill-rule="evenodd"
           d="m 85.6462,89.956 c 3.6272,0.3591 7.9442,0.4911 12.584,0.5115"
           vector-effect="none"
           id="path1969"
           style="stroke-width:0.01000001;stroke-miterlimit:4;stroke-dasharray:none;stroke:#ff0000;stroke-opacity:1" />
      </g>
      <g
         font-weight="400"
         transform="translate(1485,1050)"
         fill="none"
         font-family="'.AppleSystemUIFont'"
         stroke="#000000"
         font-style="normal"
         stroke-width="7"
         stroke-linejoin="bevel"
         stroke-linecap="round"
         stroke-opacity="1"
         font-size="45.8611px"
         id="g1975"
         style="stroke-width:0.01000001;stroke-miterlimit:4;stroke-dasharray:none;stroke:#ff0000;stroke-opacity:1">
        <path
           fill-rule="evenodd"
           d="m 186.826,89.9593 c -0.225,-2.8881 -1.16,-5.8985 -2.557,-8.6875 -2.383,-4.7587 -6.108,-8.8727 -10.376,-12.294"
           vector-effect="none"
           id="path1973"
           style="stroke-width:0.01000001;stroke-miterlimit:4;stroke-dasharray:none;stroke:#ff0000;stroke-opacity:1" />
      </g>
      <g
         font-weight="400"
         transform="translate(1485,1050)"
         fill="none"
         font-family="'.AppleSystemUIFont'"
         stroke="#000000"
         font-style="normal"
         stroke-width="7"
         stroke-linejoin="bevel"
         stroke-linecap="round"
         stroke-opacity="1"
         font-size="45.8611px"
         id="g1979"
         style="stroke-width:0.01000001;stroke-miterlimit:4;stroke-dasharray:none;stroke:#ff0000;stroke-opacity:1">
        <path
           fill-rule="evenodd"
           d="m 153.33,57.9933 c -6.597,-2.5104 -14.293,-5.0102 -21.134,-7.5843 -4.891,-1.8402 -9.344,-3.7183 -11.828,-5.7728"
           vector-effect="none"
           id="path1977"
           style="stroke-width:0.01000001;stroke-miterlimit:4;stroke-dasharray:none;stroke:#ff0000;stroke-opacity:1" />
      </g>
      <g
         font-weight="400"
         transform="translate(1485,1050)"
         fill="none"
         font-family="'.AppleSystemUIFont'"
         stroke="#000000"
         font-style="normal"
         stroke-width="7"
         stroke-linejoin="bevel"
         stroke-linecap="round"
         stroke-opacity="1"
         font-size="45.8611px"
         id="g1983"
         style="stroke-width:0.01000001;stroke-miterlimit:4;stroke-dasharray:none;stroke:#ff0000;stroke-opacity:1">
        <path
           fill-rule="evenodd"
           d="m 118.741,39.6043 c 0.763,-1.5037 2.457,-3.0155 4.485,-4.2715"
           vector-effect="none"
           id="path1981"
           style="stroke-width:0.01000001;stroke-miterlimit:4;stroke-dasharray:none;stroke:#ff0000;stroke-opacity:1" />
      </g>
      <g
         font-weight="400"
         transform="translate(1485,1050)"
         fill="none"
         font-family="'.AppleSystemUIFont'"
         stroke="#000000"
         font-style="normal"
         stroke-width="7"
         stroke-linejoin="bevel"
         stroke-linecap="round"
         stroke-opacity="1"
         font-size="45.8611px"
         id="g1987"
         style="stroke-width:0.01000001;stroke-miterlimit:4;stroke-dasharray:none;stroke:#ff0000;stroke-opacity:1">
        <path
           fill-rule="evenodd"
           d="m 130.682,32.4071 c 4.522,-0.7216 7.881,0.9815 13.756,1.6232 6.855,0.7481 17.134,0.0544 26.947,-0.7652"
           vector-effect="none"
           id="path1985"
           style="stroke-width:0.01000001;stroke-miterlimit:4;stroke-dasharray:none;stroke:#ff0000;stroke-opacity:1" />
      </g>
      <g
         font-weight="400"
         transform="translate(1485,1050)"
         fill="none"
         font-family="'.AppleSystemUIFont'"
         stroke="#000000"
         font-style="normal"
         stroke-width="7"
         stroke-linejoin="bevel"
         stroke-linecap="round"
         stroke-opacity="1"
         font-size="45.8611px"
         id="g1991"
         style="stroke-width:0.01000001;stroke-miterlimit:4;stroke-dasharray:none;stroke:#ff0000;stroke-opacity:1">
        <path
           fill-rule="evenodd"
           d="m 186.258,-34.6208 c -16.686,-8.3098 -25.672,-10.3585 -31.66,-17.1404 -5.989,-6.7819 -8.981,-18.2972 -12.521,-31.0835 -3.541,-12.7863 -7.63,-26.8433 -14.013,-38.0883 -6.384,-11.244 -15.062,-19.676 -22.207,-24.953 -7.1454,-5.277 -12.7577,-7.399 -16.0529,-6.395 -3.2951,1.005 -4.2732,5.137 -2.3332,11.541 1.9399,6.404 6.7979,15.08 10.4958,25.301 3.6983,10.221 6.2353,21.9881 6.6083,27.7627 0.374,5.7745 -1.418,5.5569 -4.8301,2.1464 -3.4121,-3.4105 -8.4447,-10.0138 -15.6416,-18.3391 -7.197,-8.324 -16.5584,-18.371 -26.12,-25.547 -9.5616,-7.176 -19.3235,-11.481 -25.6121,-12.392 -6.2886,-0.911 -9.1039,1.571 -9.9969,6.861 -0.8931,5.291 0.1362,13.389 5.6829,24.377 5.5467,10.988 15.6108,24.8666 29.2318,36.2219 13.621,11.3553 30.7989,20.1874 33.5844,27.9358 2.7856,7.7485 -8.8213,14.4135 -19.833,17.3509 -11.0117,2.9375 -21.4283,2.1475 -43.1508,-1.1908 -21.7224,-3.3383 -54.7506,-9.2249 -107.9332,19.299 -4.8185,6.13036 -14.2649,-2.1804 -22.9514,-7.435 -8.687,-5.2546 -16.613,-7.453 -23.211,-6.3412 -6.599,1.1118 -11.869,5.5338 -14.548,11.2614 -2.679,5.72762 -2.768,12.760821 0.186,18.24634 2.953,5.48556 8.949,9.42336 12.935,12.78366 3.986,3.3604 5.962,6.1433 6.56,10.7993 0.599,4.6561 -0.18,11.1854 -3.157,16.4112 -2.977,5.2257 -8.153,9.1479 -14.841,11.4911 -6.688,2.3433 -14.887,3.1077 -21.208,5.8766 -6.322,2.7689 -10.766,7.5424 -13.931,14.8836 -3.165,7.3412 -5.052,17.2501 -9.337,25.4752 -4.286,8.225 -10.97,14.767 -17.004,19.196 -6.034,4.429 -11.418,6.745 -13.557,10.278 -2.139,3.533 -1.033,8.283 1.15,12.037 2.183,3.753 5.443,6.511 10.821,7.77 5.377,1.259 12.872,1.02 20.134,-1.519 7.262,-2.538 14.293,-7.375 20.763,-14.803 6.47,-7.429 12.379,-17.448 16.967,-23.849 4.587,-6.402 7.852,-9.185 11.236,-9.21 3.383,-0.024 6.885,2.712 11.758,5.961 4.874,3.25 11.12,7.015 19.238,9.952 8.1179,2.938 18.1078,5.049 26.4037,5.681 8.296,0.633 14.898,-0.214 21.4172,-3.012 6.5192,-2.798 12.9556,-7.547 19.5862,-14.596 6.6306,-7.0501 13.4554,-16.4003 22.1234,-19.0875 8.66792,-2.6871 19.17903,1.2889 30.8304,-0.1475 11.6514,-1.4364 24.443,-8.2852 31.9507,-10.0752 7.5077,-1.7901 9.7315,1.4786 13.7748,4.9481 4.0432,3.4694 9.9059,7.1396 23.8733,8.1232 13.9673,0.9835 36.0393,-0.7196 47.9193,0.6978 11.88,1.4173 13.568,5.9551 17.825,9.2861 4.256,3.332 11.082,5.457 17.383,5.029 6.302,-0.428 12.079,-3.409 14.473,-7.9488 2.393,-4.5399 1.404,-10.6389 -1.25,-15.9384 -2.654,-5.2995 -6.972,-9.7994 -11.851,-13.4334 -4.878,-3.6339 -10.318,-6.4018 -17.286,-9.1476 -6.967,-2.7458 -15.462,-5.4694 -22.936,-8.2818 -7.474,-2.8124 -13.927,-5.7135 -13.89,-9.197 0.038,-3.4835 6.566,-7.5494 11.531,-8.6442 4.965,-1.0948 8.366,0.7815 14.601,1.4625 6.235,0.6811 15.304,0.167 24.278,-0.5466 8.974,-0.7135 17.852,-1.6264 23.607,-2.8254 5.755,-1.199 8.385,-2.6841 11.963,-5.3735 3.578,-2.6894 8.102,-6.5831 10.214,-16.67879 2.113,-10.0957 1.812,-26.39341 -28.242,-43.22681"
           vector-effect="none"
           id="path1989"
           style="stroke-width:0.01000001;stroke-miterlimit:4;stroke-dasharray:none;stroke:#ff0000;stroke-opacity:1" />
      </g>
    </g>
  </g>
</svg>
